<svg xmlns="http://www.w3.org/2000/svg" width="265.689" height="96.375" viewBox="0 0 265.689 96.375">
  <g id="Group_47" data-name="Group 47" transform="translate(-197.718 -9452.552)">
    <path id="Path_52" data-name="Path 52" d="M266.436,9454.242h19.42l9.663,16.455,9.761-16.455h18.079l-18.843,29.367L326.9,9519.3H307.482l-13.112-22-13.392,22H262.9l22.478-34.92Z" fill="#cd1f5d"/>
    <path id="Path_53" data-name="Path 53" d="M198.955,9519.232l31.666-66.2.573-.479.581.479,31.122,66.2Zm31.479-35.192-9.175,20.666h18.217Z" fill="#cd1f5d"/>
    <path id="Path_54" data-name="Path 54" d="M358.245,9520.1a36.76,36.76,0,0,1-13.392-2.445,34.161,34.161,0,0,1-11.093-6.886,33.255,33.255,0,0,1-7.612-10.572,33.676,33.676,0,0,1,0-26.976,32.7,32.7,0,0,1,7.612-10.527,34.74,34.74,0,0,1,11.093-6.841,37.944,37.944,0,0,1,26.74,0,34.726,34.726,0,0,1,11.146,6.841,32.712,32.712,0,0,1,7.6,10.527,33.589,33.589,0,0,1,0,26.976,33.266,33.266,0,0,1-7.6,10.572,34.149,34.149,0,0,1-11.146,6.886,36.951,36.951,0,0,1-13.348,2.445m0-15.118a17.413,17.413,0,0,0,7.275-1.438,15.968,15.968,0,0,0,5.35-3.875,16.525,16.525,0,0,0,3.355-5.784,23.052,23.052,0,0,0,0-14.35,16.538,16.538,0,0,0-3.355-5.789,15.568,15.568,0,0,0-5.35-3.826,19.737,19.737,0,0,0-14.545,0,15.591,15.591,0,0,0-5.358,3.826,16.591,16.591,0,0,0-3.351,5.789,23.033,23.033,0,0,0,0,14.35,16.578,16.578,0,0,0,3.351,5.784,15.99,15.99,0,0,0,5.358,3.875,17.353,17.353,0,0,0,7.27,1.438" fill="#cd1f5d"/>
    <path id="Path_55" data-name="Path 55" d="M417.654,9486.8v32.427H401.293v-65.908l.284-.671c.191-.129.54.032,1.056.479l40.851,33.673V9454.18h16.357v66.014c0,.378-.094.617-.284.715s-.545-.081-1.056-.524Z" fill="#cd1f5d"/>
    <path id="Path_56" data-name="Path 56" d="M206.168,9548.319h-8.45v-22.663h8.194c6.434,0,12.964,2.688,12.964,11.267,0,7.971-6.466,11.4-12.708,11.4m-.384-17.99h-2.721v13.253h2.593c3.9,0,7.523-1.6,7.523-6.659,0-5.089-3.618-6.594-7.4-6.594" fill="#fff"/>
    <path id="Path_57" data-name="Path 57" d="M229.216,9548.319v-22.663h15.237v4.642H234.5v4.257h9.411v4.386H234.5v4.705h10.531v4.674Z" fill="#fff"/>
    <path id="Path_58" data-name="Path 58" d="M266.6,9548.319h-5.474l-8.579-22.663H258.7l5.25,16.069h.127l5.218-16.069h6.05Z" fill="#fff"/>
    <path id="Path_59" data-name="Path 59" d="M283.922,9548.319v-22.663h15.237v4.642H289.2v4.257h9.411v4.386H289.2v4.705h10.531v4.674Z" fill="#fff"/>
    <path id="Path_60" data-name="Path 60" d="M310.075,9548.319v-22.663h5.506v17.894h8.771v4.77Z" fill="#fff"/>
    <path id="Path_61" data-name="Path 61" d="M343.942,9548.927c-7.074,0-12.324-4.865-12.324-12.035,0-7.267,5.25-11.844,12.324-11.844,7.106,0,12.356,4.577,12.356,11.844,0,7.17-5.25,12.035-12.356,12.035m0-18.949c-3.841,0-6.466,2.944-6.466,6.914,0,4.1,2.657,7.042,6.466,7.042s6.5-2.944,6.5-7.042c0-3.97-2.657-6.914-6.5-6.914" fill="#fff"/>
    <path id="Path_62" data-name="Path 62" d="M374.833,9539.773h-2.721v8.546h-5.474v-22.663h8.323c4.961,0,8.866,1.793,8.866,6.978,0,5.25-4.257,7.14-8.994,7.14m-.321-9.7h-2.4v5.345h2.3c2.049,0,3.938-.608,3.938-2.753,0-2.177-1.889-2.592-3.842-2.592" fill="#fff"/>
    <path id="Path_63" data-name="Path 63" d="M393.847,9548.319v-22.663h15.237v4.642h-9.955v4.257h9.411v4.386h-9.411v4.705H409.66v4.674Z" fill="#fff"/>
    <path id="Path_64" data-name="Path 64" d="M432.133,9548.319l-4.9-8.994h-1.857v8.994H420v-22.663h8.642c4.353,0,8.675,1.665,8.675,6.85a6.165,6.165,0,0,1-4.706,6.114l5.922,9.7Zm-3.874-18.245h-2.913v5.281h2.593c1.761,0,3.969-.448,3.969-2.754,0-2.112-2.016-2.527-3.649-2.527" fill="#fff"/>
    <path id="Path_65" data-name="Path 65" d="M459.917,9531.546a5.488,5.488,0,0,0-4.032-1.953c-1.409,0-3.169.481-3.169,2.273,0,1.5,1.344,1.983,3.488,2.657,3.073.991,7.043,2.3,7.043,6.817,0,5.218-4.193,7.554-8.675,7.554a11.952,11.952,0,0,1-8.482-3.265l3.584-3.648a6.707,6.707,0,0,0,4.9,2.4c1.664,0,3.137-.64,3.137-2.465,0-1.729-1.728-2.273-4.705-3.233-2.881-.928-5.794-2.4-5.794-6.5,0-5.025,4.545-7.105,8.771-7.105a11.33,11.33,0,0,1,7.426,2.785Z" fill="#fff"/>
  </g>
</svg>
